<?xml version="1.0" standalone="no"?>
<!DOCTYPE svg PUBLIC "-//W3C//DTD SVG 20010904//EN"
 "http://www.w3.org/TR/2001/REC-SVG-20010904/DTD/svg10.dtd">
<svg version="1.0" xmlns="http://www.w3.org/2000/svg"
 width="924.000000pt" height="1392.000000pt" viewBox="0 0 924.000000 1392.000000"
 preserveAspectRatio="xMidYMid meet">

<g transform="translate(0.000000,1392.000000) scale(0.100000,-0.100000)"
fill="#000000" stroke="none">
<path d="M1840 6818 l0 -3694 26 -52 c17 -34 41 -62 67 -81 87 -58 1962 -1135
2001 -1149 109 -37 241 30 282 145 11 32 13 672 14 3734 l0 3695 26 52 c31 63
39 68 332 237 122 70 222 130 222 134 0 3 -660 154 -1467 336 -808 181 -1476
331 -1485 333 -17 4 -18 -177 -18 -3690z"/>
<path d="M6230 5844 c-410 -6 -847 -12 -972 -13 l-228 -1 0 -2814 c0 -2076 3
-2822 11 -2847 38 -111 157 -180 274 -158 31 6 327 172 1017 570 535 309 985
571 999 582 15 10 40 42 56 71 l28 51 3 2288 2 2287 -222 -2 c-123 0 -558 -7
-968 -14z"/>
<path d="M8310 2898 c-25 -13 -55 -38 -68 -57 l-23 -35 3 -455 3 -456 23 -33
c32 -44 77 -66 138 -66 47 0 71 12 423 214 393 226 410 239 426 317 9 43 -11
108 -43 142 -25 27 -648 392 -737 432 -53 25 -92 24 -145 -3z"/>
</g>
</svg>
